# xmcd
#
# Track frame offsets:
#	150
#	7402
#	47520
#	91891
#	135265
#	176576
#	209116
#	235465
#	262764
#	280014
#	303820
#
# Disc length: 4297 seconds
#
# Revision: 0
# Processed by: cddbd v1.5.1PL0 Copyright (c) Steve Scherf et al.
# Submitted via: dBpowerAMP V4.0
#
DISCID=9010c70b
DTITLE=Shiva Shidabu - Space Technology
DYEAR=1900
DGENRE=Psychadelic
TTITLE0=Intro
TTITLE1=Power of Celtic
TTITLE2=India Spirit
TTITLE3=Hymn to the Sun
TTITLE4=Flipper
TTITLE5=Egokiller
TTITLE6=Spiritual Healing
TTITLE7=Huopatossu Mononen - Keitä huora puuroo
TTITLE8=Huopatossu Mononen - Mätä Hammas
TTITLE9=Matkatoimisto - Matador
TTITLE10=Texas Faggott - Elämä on laiffii ( sounat )
EXTD=
EXTT0=
EXTT1=
EXTT2=
EXTT3=
EXTT4=
EXTT5=
EXTT6=
EXTT7=
EXTT8=
EXTT9=
EXTT10=
PLAYORDER=
